<svg width="600" height="400" xmlns="http://www.w3.org/2000/svg">
  <!-- Background -->
  <rect width="600" height="400" fill="#0d1117"/>

  <!-- Window Header -->
  <rect x="20" y="20" width="560" height="40" rx="8" fill="#161b22"/>
  <circle cx="40" cy="40" r="6" fill="#ff5f56"/>
  <circle cx="60" cy="40" r="6" fill="#ffbd2e"/>
  <circle cx="80" cy="40" r="6" fill="#27c93f"/>
  <text x="300" y="45" fill="#8b949e" font-family="monospace" font-size="14" text-anchor="middle">Coding Platform</text>

  <!-- Code Editor Section -->
  <rect x="20" y="70" width="350" height="300" rx="8" fill="#0d1117" stroke="#30363d" stroke-width="1"/>

  <!-- Code Lines -->
  <text x="30" y="100" fill="#ff7b72" font-family="monospace" font-size="12">function</text>
  <text x="100" y="100" fill="#79c0ff" font-family="monospace" font-size="12">solveProblem</text>
  <text x="200" y="100" fill="#c9d1d9" font-family="monospace" font-size="12">() {</text>

  <text x="40" y="125" fill="#ff7b72" font-family="monospace" font-size="12">const</text>
  <text x="85" y="125" fill="#79c0ff" font-family="monospace" font-size="12">result</text>
  <text x="140" y="125" fill="#c9d1d9" font-family="monospace" font-size="12">= [];</text>

  <text x="40" y="150" fill="#ff7b72" font-family="monospace" font-size="12">for</text>
  <text x="70" y="150" fill="#c9d1d9" font-family="monospace" font-size="12">(</text>
  <text x="80" y="150" fill="#ff7b72" font-family="monospace" font-size="12">let</text>
  <text x="110" y="150" fill="#79c0ff" font-family="monospace" font-size="12">i</text>
  <text x="120" y="150" fill="#c9d1d9" font-family="monospace" font-size="12">= 0;</text>
  <text x="160" y="150" fill="#79c0ff" font-family="monospace" font-size="12">i</text>
  <text x="170" y="150" fill="#c9d1d9" font-family="monospace" font-size="12">&lt; n;</text>
  <text x="210" y="150" fill="#79c0ff" font-family="monospace" font-size="12">i</text>
  <text x="220" y="150" fill="#c9d1d9" font-family="monospace" font-size="12">++) {</text>

  <text x="50" y="175" fill="#c9d1d9" font-family="monospace" font-size="12">result.push(i);</text>

  <text x="40" y="200" fill="#c9d1d9" font-family="monospace" font-size="12">}</text>
  <text x="40" y="225" fill="#ff7b72" font-family="monospace" font-size="12">return</text>
  <text x="95" y="225" fill="#79c0ff" font-family="monospace" font-size="12">result</text>
  <text x="145" y="225" fill="#c9d1d9" font-family="monospace" font-size="12">;</text>
  <text x="30" y="250" fill="#c9d1d9" font-family="monospace" font-size="12">}</text>

  <!-- Test Cases Panel -->
  <rect x="390" y="70" width="190" height="140" rx="8" fill="#0d1117" stroke="#30363d" stroke-width="1"/>
  <text x="400" y="95" fill="#58a6ff" font-family="sans-serif" font-size="14" font-weight="bold">Test Cases</text>

  <!-- Test Results -->
  <circle cx="405" cy="120" r="4" fill="#3fb950"/>
  <text x="420" y="125" fill="#c9d1d9" font-family="monospace" font-size="11">Test 1: Passed</text>

  <circle cx="405" cy="145" r="4" fill="#3fb950"/>
  <text x="420" y="150" fill="#c9d1d9" font-family="monospace" font-size="11">Test 2: Passed</text>

  <circle cx="405" cy="170" r="4" fill="#3fb950"/>
  <text x="420" y="175" fill="#c9d1d9" font-family="monospace" font-size="11">Test 3: Passed</text>

  <circle cx="405" cy="195" r="4" fill="#f85149"/>
  <text x="420" y="200" fill="#c9d1d9" font-family="monospace" font-size="11">Test 4: Failed</text>

  <!-- Console Output -->
  <rect x="390" y="220" width="190" height="150" rx="8" fill="#0d1117" stroke="#30363d" stroke-width="1"/>
  <text x="400" y="245" fill="#58a6ff" font-family="sans-serif" font-size="14" font-weight="bold">Console</text>
  <text x="400" y="270" fill="#3fb950" font-family="monospace" font-size="10">✓ Compiled successfully</text>
  <text x="400" y="290" fill="#c9d1d9" font-family="monospace" font-size="10">Time: 0.42s</text>
  <text x="400" y="310" fill="#c9d1d9" font-family="monospace" font-size="10">Memory: 12MB</text>
  <text x="400" y="330" fill="#79c0ff" font-family="monospace" font-size="10">Score: 75/100</text>

  <!-- Docker Icon -->
  <text x="30" y="345" fill="#58a6ff" font-family="sans-serif" font-size="10">🐳 Sandboxed</text>
  <text x="130" y="345" fill="#79c0ff" font-family="sans-serif" font-size="10">⚡ Go Runtime</text>
</svg>
